<svg width="38" height="38" viewBox="0 0 38 38" fill="none" xmlns="http://www.w3.org/2000/svg">
<path d="M30.5109 8.4394C28.405 7.45774 26.125 6.74524 23.75 6.33357C23.7292 6.3329 23.7085 6.33681 23.6893 6.34502C23.6702 6.35322 23.6531 6.36553 23.6392 6.38107C23.3542 6.90357 23.0217 7.5844 22.8 8.1069C20.2809 7.7269 17.7191 7.7269 15.2 8.1069C14.9784 7.56857 14.6459 6.90357 14.345 6.38107C14.3292 6.3494 14.2817 6.33357 14.2342 6.33357C11.8592 6.74524 9.59502 7.45774 7.47336 8.4394C7.45752 8.4394 7.44169 8.45524 7.42586 8.47107C3.11919 14.9152 1.93169 21.1852 2.51752 27.3919C2.51752 27.4236 2.53336 27.4552 2.56502 27.4711C5.41502 29.5611 8.15419 30.8277 10.8617 31.6669C10.9092 31.6827 10.9567 31.6669 10.9725 31.6352C11.6059 30.7644 12.1759 29.8461 12.6667 28.8802C12.6984 28.8169 12.6667 28.7536 12.6034 28.7377C11.7009 28.3894 10.8459 27.9777 10.0067 27.5027C9.94336 27.4711 9.94336 27.3761 9.99086 27.3286C10.165 27.2019 10.3392 27.0594 10.5134 26.9327C10.545 26.9011 10.5925 26.9011 10.6242 26.9169C16.0709 29.4027 21.945 29.4027 27.3284 26.9169C27.36 26.9011 27.4075 26.9011 27.4392 26.9327C27.6134 27.0752 27.7875 27.2019 27.9617 27.3444C28.025 27.3919 28.025 27.4869 27.9459 27.5186C27.1225 28.0094 26.2517 28.4052 25.3492 28.7536C25.2859 28.7694 25.27 28.8486 25.2859 28.8961C25.7925 29.8619 26.3625 30.7802 26.98 31.6511C27.0275 31.6669 27.075 31.6827 27.1225 31.6669C29.8459 30.8277 32.585 29.5611 35.435 27.4711C35.4667 27.4552 35.4825 27.4236 35.4825 27.3919C36.1792 20.2194 34.3267 13.9969 30.5742 8.47107C30.5584 8.45524 30.5425 8.4394 30.5109 8.4394ZM13.49 23.6077C11.8592 23.6077 10.4975 22.1036 10.4975 20.2511C10.4975 18.3986 11.8275 16.8944 13.49 16.8944C15.1684 16.8944 16.4984 18.4144 16.4825 20.2511C16.4825 22.1036 15.1525 23.6077 13.49 23.6077ZM24.5259 23.6077C22.895 23.6077 21.5334 22.1036 21.5334 20.2511C21.5334 18.3986 22.8634 16.8944 24.5259 16.8944C26.2042 16.8944 27.5342 18.4144 27.5184 20.2511C27.5184 22.1036 26.2042 23.6077 24.5259 23.6077Z" fill="white"/>
</svg>
