<svg width="28" height="22" viewBox="0 0 28 22" fill="none" xmlns="http://www.w3.org/2000/svg">
<path d="M26.457 17.8203C26.3493 18.2524 26.1385 18.6518 25.8425 18.9845C25.5466 19.3172 25.1744 19.5732 24.7578 19.7305C20.75 21.2773 14.3516 21.2656 14 21.2656C13.6484 21.2656 7.25 21.2773 3.24219 19.7305C2.82563 19.5732 2.45343 19.3172 2.15749 18.9845C1.86154 18.6518 1.65068 18.2524 1.54297 17.8203C1.23828 16.6602 0.875 14.5273 0.875 11C0.875 7.47265 1.23828 5.33984 1.54297 4.17969C1.65068 3.74764 1.86154 3.34816 2.15749 3.01548C2.45343 2.68279 2.82563 2.42683 3.24219 2.26953C7.08594 0.781248 13.1094 0.734371 13.918 0.734371H14.082C14.8906 0.734371 20.9141 0.781248 24.7578 2.26953C25.1744 2.42683 25.5466 2.68279 25.8425 3.01548C26.1385 3.34816 26.3493 3.74764 26.457 4.17969C26.7617 5.33984 27.125 7.47265 27.125 11C27.125 14.5273 26.7617 16.6602 26.457 17.8203ZM18.0078 10.6133L12.3828 6.86328C12.3082 6.80837 12.2176 6.77955 12.125 6.78125C12.0474 6.78414 11.9713 6.80415 11.9023 6.83984C11.8274 6.87881 11.7648 6.93776 11.7214 7.01015C11.6779 7.08255 11.6554 7.16557 11.6562 7.25V14.75C11.6554 14.8344 11.6779 14.9174 11.7214 14.9898C11.7648 15.0622 11.8274 15.1212 11.9023 15.1602C11.9771 15.2 12.0612 15.2189 12.1458 15.2148C12.2304 15.2106 12.3123 15.1837 12.3828 15.1367L18.0078 11.3867C18.0732 11.3455 18.127 11.2885 18.1644 11.2209C18.2017 11.1532 18.2213 11.0772 18.2213 11C18.2213 10.9228 18.2017 10.8468 18.1644 10.7791C18.127 10.7115 18.0732 10.6544 18.0078 10.6133Z" fill="url(#paint0_linear_316_289)"/>
<defs>
<linearGradient id="paint0_linear_316_289" x1="14" y1="21.2656" x2="14" y2="0.734371" gradientUnits="userSpaceOnUse">
<stop stop-color="#D7555F"/>
<stop offset="1" stop-color="#FC9259"/>
</linearGradient>
</defs>
</svg>
